<svg width="168" height="50" viewBox="0 0 168 50" fill="none" xmlns="http://www.w3.org/2000/svg">
<path d="M54 44.46V36.76H56.651C57.2597 36.76 57.7583 36.8627 58.147 37.068C58.543 37.2733 58.8363 37.552 59.027 37.904C59.2177 38.2487 59.313 38.6337 59.313 39.059C59.313 39.5357 59.1847 39.9683 58.928 40.357C58.6787 40.7457 58.2863 41.0243 57.751 41.193L59.39 44.46H58.037L56.541 41.358H55.166V44.46H54ZM55.166 40.478H56.585C57.113 40.478 57.498 40.3497 57.74 40.093C57.9893 39.8363 58.114 39.5027 58.114 39.092C58.114 38.6813 57.993 38.355 57.751 38.113C57.509 37.8637 57.1167 37.739 56.574 37.739H55.166V40.478Z" fill="#E4C590"/>
<path d="M64.6524 44.46V36.76H69.5474V37.706H65.8184V40.104H69.2174V41.028H65.8184V43.514H69.5474V44.46H64.6524Z" fill="#E4C590"/>
<path d="M77.4376 44.592C76.8729 44.592 76.3779 44.493 75.9526 44.295C75.5272 44.097 75.1936 43.8147 74.9516 43.448C74.7169 43.0813 74.5959 42.645 74.5886 42.139H75.8206C75.8279 42.5497 75.9709 42.898 76.2496 43.184C76.5282 43.47 76.9206 43.613 77.4266 43.613C77.8739 43.613 78.2222 43.5067 78.4716 43.294C78.7282 43.074 78.8566 42.7953 78.8566 42.458C78.8566 42.1867 78.7942 41.9667 78.6696 41.798C78.5522 41.6293 78.3872 41.49 78.1746 41.38C77.9692 41.27 77.7309 41.171 77.4596 41.083C77.1882 40.995 76.9022 40.8997 76.6016 40.797C76.0076 40.599 75.5602 40.3423 75.2596 40.027C74.9662 39.7117 74.8196 39.2973 74.8196 38.784C74.8122 38.3513 74.9112 37.9737 75.1166 37.651C75.3292 37.3283 75.6226 37.079 75.9966 36.903C76.3779 36.7197 76.8216 36.628 77.3276 36.628C77.8262 36.628 78.2626 36.7197 78.6366 36.903C79.0179 37.0863 79.3149 37.343 79.5276 37.673C79.7402 37.9957 79.8502 38.3733 79.8576 38.806H78.6256C78.6256 38.608 78.5742 38.421 78.4716 38.245C78.3689 38.0617 78.2186 37.9113 78.0206 37.794C77.8226 37.6767 77.5806 37.618 77.2946 37.618C76.9279 37.6107 76.6236 37.7023 76.3816 37.893C76.1469 38.0837 76.0296 38.3477 76.0296 38.685C76.0296 38.9857 76.1176 39.2167 76.2936 39.378C76.4696 39.5393 76.7116 39.675 77.0196 39.785C77.3276 39.8877 77.6796 40.0087 78.0756 40.148C78.4569 40.2727 78.7979 40.423 79.0986 40.599C79.3992 40.775 79.6376 41.006 79.8136 41.292C79.9969 41.578 80.0886 41.941 80.0886 42.381C80.0886 42.7697 79.9896 43.1327 79.7916 43.47C79.5936 43.8 79.2966 44.0713 78.9006 44.284C78.5046 44.4893 78.0169 44.592 77.4376 44.592Z" fill="#E4C590"/>
<path d="M86.9877 44.46V37.706H84.7107V36.76H90.4197V37.706H88.1537V44.46H86.9877Z" fill="#E4C590"/>
<path d="M94.138 44.46L96.976 36.76H98.252L101.068 44.46H99.836L99.176 42.579H96.03L95.37 44.46H94.138ZM96.36 41.655H98.846L97.603 38.146L96.36 41.655Z" fill="#E4C590"/>
<path d="M108.651 44.592C108.101 44.592 107.602 44.4857 107.155 44.273C106.715 44.053 106.363 43.7193 106.099 43.272C105.842 42.8247 105.714 42.2563 105.714 41.567V36.76H106.88V41.578C106.88 42.2527 107.041 42.7477 107.364 43.063C107.686 43.3783 108.123 43.536 108.673 43.536C109.215 43.536 109.648 43.3783 109.971 43.063C110.293 42.7477 110.455 42.2527 110.455 41.578V36.76H111.621V41.567C111.621 42.2563 111.485 42.8247 111.214 43.272C110.95 43.7193 110.59 44.053 110.136 44.273C109.688 44.4857 109.193 44.592 108.651 44.592Z" fill="#E4C590"/>
<path d="M117.076 44.46V36.76H119.727C120.336 36.76 120.835 36.8627 121.223 37.068C121.619 37.2733 121.913 37.552 122.103 37.904C122.294 38.2487 122.389 38.6337 122.389 39.059C122.389 39.5357 122.261 39.9683 122.004 40.357C121.755 40.7457 121.363 41.0243 120.827 41.193L122.466 44.46H121.113L119.617 41.358H118.242V44.46H117.076ZM118.242 40.478H119.661C120.189 40.478 120.574 40.3497 120.816 40.093C121.066 39.8363 121.19 39.5027 121.19 39.092C121.19 38.6813 121.069 38.355 120.827 38.113C120.585 37.8637 120.193 37.739 119.65 37.739H118.242V40.478Z" fill="#E4C590"/>
<path d="M127.234 44.46L130.072 36.76H131.348L134.164 44.46H132.932L132.272 42.579H129.126L128.466 44.46H127.234ZM129.456 41.655H131.942L130.699 38.146L129.456 41.655Z" fill="#E4C590"/>
<path d="M139.198 44.46V36.76H140.364L144.225 42.557V36.76H145.391V44.46H144.225L140.364 38.663V44.46H139.198Z" fill="#E4C590"/>
<path d="M152.717 44.46V37.706H150.44V36.76H156.149V37.706H153.883V44.46H152.717Z" fill="#E4C590"/>
<path fill-rule="evenodd" clip-rule="evenodd" d="M32.5132 42.597C29.684 44.1297 26.4436 45 23 45C11.9543 45 3 36.0457 3 25C3 13.9543 11.9543 5 23 5C26.0521 5 28.9446 5.68368 31.5326 6.90625C31.3663 7.11885 31.209 7.34319 31.0619 7.57929C30.37 8.68974 29.8253 10.0318 29.47 11.4633C27.5111 10.5253 25.3169 10 23 10C14.7157 10 8 16.7157 8 25C8 33.2843 14.7157 40 23 40C27.2915 40 31.162 38.1978 33.8961 35.309C33.5961 36.4152 33.1892 37.6031 32.6373 38.9318C32.2262 39.809 32.1122 40.4488 32.1122 41.4602C32.1122 41.8663 32.2596 42.247 32.5132 42.597ZM29.0138 14.6134C28.8567 18.2765 30.0306 21.8663 33.1625 23.2555C34.135 24.128 34.7379 25.2124 34.7379 26.6199C34.7379 26.9224 34.7379 27.2186 34.7371 27.5099C33.5832 32.9324 28.7666 37 23 37C16.3726 37 11 31.6274 11 25C11 18.3726 16.3726 13 23 13C25.1914 13 27.2456 13.5874 29.0138 14.6134Z" fill="#E4C590"/>
<path d="M41.7607 22.8781C46.7982 20.5576 46.5779 13.151 43.8104 8.53905C40.9996 3.85445 36.7943 3.78631 33.9427 8.53905C31.1901 13.126 30.9363 20.5491 35.9923 22.8781C36.9183 23.7408 37.6263 25.4349 37.6263 26.8266C37.6263 31.0162 37.8838 34.3087 35.7001 39.1394C35.3086 40.0068 35.1257 40.6631 35.1257 41.2062C35.1257 43.2981 36.8081 45 38.8765 45C40.9449 45 42.6273 43.2981 42.6273 41.2062C42.6273 40.6631 42.4445 40.0068 42.053 39.1394C39.8389 34.2417 40.1268 30.7222 40.1268 26.8266C40.1268 25.4349 40.8348 23.7408 41.7607 22.8781Z" fill="#E4C590"/>
<path d="M62.4941 12.2568C62.5137 12.4131 62.5283 12.5791 62.5381 12.7549C62.5479 12.9209 62.5527 13.0869 62.5527 13.2529C62.5527 13.7803 62.5039 14.2148 62.4062 14.5566C62.3086 14.8887 62.1572 15.1523 61.9521 15.3477C61.7568 15.543 61.5029 15.6797 61.1904 15.7578C60.8779 15.8262 60.5068 15.8604 60.0771 15.8604C59.8818 15.8604 59.7061 15.8457 59.5498 15.8164C59.3936 15.7773 59.2275 15.7432 59.0518 15.7139C58.8857 15.6748 58.6953 15.6406 58.4805 15.6113C58.2656 15.5723 58.0068 15.5527 57.7041 15.5527C57.3916 15.5527 57.0742 15.5625 56.752 15.582C56.4297 15.5918 56.1465 15.5967 55.9023 15.5967C55.6973 15.5967 55.4971 15.6016 55.3018 15.6113C55.1064 15.6113 54.9307 15.6309 54.7744 15.6699C54.6182 15.709 54.4912 15.7725 54.3936 15.8604C54.2959 15.9385 54.2471 16.0508 54.2471 16.1973C54.2471 16.7637 54.2812 17.291 54.3496 17.7793C54.4277 18.2676 54.4668 18.7168 54.4668 19.127C54.4668 19.5957 54.4521 20.0547 54.4229 20.5039C54.4033 20.9531 54.3936 21.4268 54.3936 21.9248C54.3936 22.4229 54.4277 22.9355 54.4961 23.4629C54.5742 23.9805 54.6133 24.4443 54.6133 24.8545C54.6133 25.0498 54.6035 25.2207 54.584 25.3672C54.5645 25.5137 54.54 25.6406 54.5107 25.748C54.4912 25.8555 54.4717 25.9482 54.4521 26.0264C54.4326 26.1045 54.4229 26.1777 54.4229 26.2461C54.4229 26.3926 54.4521 26.5537 54.5107 26.7295C54.5791 26.9053 54.6133 27.0225 54.6133 27.0811C54.5938 27.5107 54.5449 27.8818 54.4668 28.1943C54.3887 28.4971 54.252 28.7461 54.0566 28.9414C53.8711 29.1367 53.6074 29.2783 53.2656 29.3662C52.9336 29.4639 52.4941 29.5127 51.9473 29.5127C51.8008 29.5127 51.6348 29.498 51.4492 29.4688C51.2637 29.4395 51.0781 29.3955 50.8926 29.3369C50.707 29.2881 50.541 29.2197 50.3945 29.1318C50.248 29.0537 50.1455 28.9609 50.0869 28.8535C50.0283 28.7559 49.9941 28.6289 49.9844 28.4727C49.9746 28.3164 49.9648 28.1455 49.9551 27.96C49.9453 27.7744 49.9307 27.584 49.9111 27.3887C49.9014 27.1836 49.8672 26.9883 49.8086 26.8027C49.7305 26.5684 49.623 26.3828 49.4863 26.2461C49.3594 26.0996 49.2324 25.9678 49.1055 25.8506C48.9785 25.7236 48.8662 25.5967 48.7686 25.4697C48.6807 25.3428 48.6367 25.1816 48.6367 24.9863C48.6367 24.6348 48.6807 24.2148 48.7686 23.7266C48.8662 23.2383 48.9688 22.7354 49.0762 22.2178C49.1836 21.6904 49.2812 21.1875 49.3691 20.709C49.4668 20.2207 49.5156 19.8057 49.5156 19.4639V18.7461C49.5156 18.5605 49.5303 18.3701 49.5596 18.1748C49.5889 17.9697 49.623 17.7695 49.6621 17.5742C49.7012 17.3789 49.7354 17.1885 49.7646 17.0029C49.7939 16.8174 49.8086 16.6465 49.8086 16.4902C49.8086 16.1484 49.7109 15.9238 49.5156 15.8164C49.3203 15.709 49.0566 15.6553 48.7246 15.6553H48.0947C47.8994 15.6553 47.709 15.6406 47.5234 15.6113C47.3379 15.582 47.1719 15.5137 47.0254 15.4062C46.9863 15.3672 46.9131 15.25 46.8057 15.0547C46.708 14.8496 46.6055 14.6348 46.498 14.4102C46.3906 14.1758 46.293 13.9609 46.2051 13.7656C46.127 13.5605 46.0879 13.4385 46.0879 13.3994C46.0879 13.2334 46.1318 13.082 46.2197 12.9453C46.3174 12.8086 46.3955 12.6426 46.4541 12.4473C46.5225 12.1934 46.5762 11.9639 46.6152 11.7588C46.6543 11.5537 46.6934 11.3682 46.7324 11.2021C46.7715 11.0361 46.8252 10.8945 46.8936 10.7773C46.9717 10.6504 47.084 10.5479 47.2305 10.4697C47.377 10.3818 47.5723 10.3184 47.8164 10.2793C48.0703 10.2402 48.3926 10.2207 48.7832 10.2207C48.9004 10.2207 49.0127 10.2402 49.1201 10.2793C49.2373 10.3184 49.3496 10.3623 49.457 10.4111C49.5645 10.4502 49.6719 10.4893 49.7793 10.5283C49.8867 10.5674 49.999 10.5869 50.1162 10.5869C50.3311 10.5869 50.4873 10.543 50.585 10.4551C50.6826 10.3672 50.7559 10.2598 50.8047 10.1328C50.8633 9.99609 50.917 9.85449 50.9658 9.70801C51.0244 9.55176 51.1123 9.41016 51.2295 9.2832C51.3564 9.14648 51.5371 9.03418 51.7715 8.94629C52.0059 8.8584 52.333 8.81445 52.7529 8.81445C53.0557 8.84375 53.2705 8.93164 53.3975 9.07812C53.5244 9.21484 53.6221 9.37109 53.6904 9.54688C53.7588 9.72266 53.832 9.89844 53.9102 10.0742C53.9883 10.25 54.1299 10.3867 54.335 10.4844C54.3643 10.5039 54.457 10.5234 54.6133 10.543C54.7793 10.5625 54.96 10.582 55.1553 10.6016C55.3506 10.6211 55.5361 10.6406 55.7119 10.6602C55.8975 10.6699 56.0293 10.6748 56.1074 10.6748C56.3027 10.6748 56.498 10.6602 56.6934 10.6309C56.8887 10.6016 57.084 10.5869 57.2793 10.5869C57.4648 10.5869 57.6357 10.6162 57.792 10.6748C57.958 10.7236 58.124 10.7822 58.29 10.8506C58.4658 10.9189 58.6562 10.9824 58.8613 11.041C59.0664 11.0898 59.3105 11.1143 59.5938 11.1143C59.9062 11.1143 60.1943 11.0996 60.458 11.0703C60.7314 11.041 60.9805 11.0264 61.2051 11.0264C61.3809 11.0264 61.5371 11.0459 61.6738 11.085C61.8203 11.1143 61.9473 11.1729 62.0547 11.2607C62.1621 11.3486 62.25 11.4756 62.3184 11.6416C62.3965 11.7979 62.4551 12.0029 62.4941 12.2568ZM82.8115 11.7734C82.8115 11.9883 82.7773 12.2031 82.709 12.418C82.6504 12.6328 82.6211 12.8379 82.6211 13.0332C82.6211 13.3066 82.6357 13.5703 82.665 13.8242C82.7041 14.0781 82.7236 14.3271 82.7236 14.5713C82.7236 14.8447 82.6992 15.1133 82.6504 15.377C82.6016 15.6309 82.5479 15.8848 82.4893 16.1387C82.4404 16.3926 82.3916 16.6465 82.3428 16.9004C82.2939 17.1543 82.2695 17.4082 82.2695 17.6621C82.2695 17.8379 82.2842 18.0186 82.3135 18.2041C82.3428 18.3799 82.3574 18.5508 82.3574 18.7168C82.3574 18.8926 82.3428 19.0586 82.3135 19.2148C82.2842 19.3613 82.25 19.5127 82.2109 19.6689C82.1719 19.8252 82.1377 19.9912 82.1084 20.167C82.0791 20.333 82.0645 20.5186 82.0645 20.7236C82.0645 21.0947 82.0693 21.4609 82.0791 21.8223C82.0889 22.1738 82.0938 22.5449 82.0938 22.9355C82.0938 23.1016 82.0889 23.2773 82.0791 23.4629C82.0693 23.6387 82.0645 23.8242 82.0645 24.0195C82.0645 24.2051 82.0156 24.4199 81.918 24.6641C81.8301 24.8984 81.7861 25.1426 81.7861 25.3965C81.7861 25.5625 81.7812 25.7725 81.7715 26.0264C81.7715 26.2803 81.7568 26.5342 81.7275 26.7881C81.708 27.042 81.6738 27.2764 81.625 27.4912C81.5762 27.6963 81.5127 27.8379 81.4346 27.916C81.3076 28.043 81.1074 28.126 80.834 28.165C80.5703 28.2041 80.2871 28.2236 79.9844 28.2236C79.7109 28.2236 79.4473 28.2188 79.1934 28.209C78.9395 28.1992 78.7246 28.1943 78.5488 28.1943C78.4121 28.1943 78.2705 28.2236 78.124 28.2822C77.9873 28.3408 77.8799 28.3701 77.8018 28.3701C77.7139 28.3604 77.5771 28.3115 77.3916 28.2236C77.2061 28.126 77.0156 28.0186 76.8203 27.9014C76.6348 27.7842 76.459 27.667 76.293 27.5498C76.127 27.4326 76.0195 27.335 75.9707 27.2568C75.873 27.1396 75.7998 27.0029 75.751 26.8467C75.7021 26.6807 75.6484 26.5049 75.5898 26.3193C75.541 26.124 75.4678 25.9287 75.3701 25.7334C75.2822 25.5283 75.1406 25.3281 74.9453 25.1328C74.8965 25.084 74.8281 25.0547 74.7402 25.0449C74.6523 25.0352 74.5938 25.0059 74.5645 24.957C74.5156 24.8789 74.4863 24.7861 74.4766 24.6787C74.4668 24.5713 74.4326 24.4736 74.374 24.3857C74.3545 24.3467 74.2959 24.2686 74.1982 24.1514C74.1104 24.0244 74.0127 23.8975 73.9053 23.7705C73.8076 23.6436 73.71 23.5312 73.6123 23.4336C73.5244 23.3262 73.4707 23.2725 73.4512 23.2725C73.334 23.2822 73.2119 23.3945 73.085 23.6094C72.9678 23.8145 72.8506 24.0537 72.7334 24.3271C72.6162 24.6006 72.5088 24.8691 72.4111 25.1328C72.3135 25.3965 72.2305 25.5869 72.1621 25.7041C72.1133 25.7822 72.0303 25.8652 71.9131 25.9531C71.7959 26.0312 71.7275 26.0947 71.708 26.1436C71.5127 26.4951 71.3467 26.8662 71.21 27.2568C71.083 27.6377 70.9072 28.0088 70.6826 28.3701C70.5264 28.624 70.3945 28.8145 70.2871 28.9414C70.1895 29.0586 70.0771 29.1367 69.9502 29.1758C69.833 29.2246 69.6816 29.249 69.4961 29.249C69.3105 29.2588 69.0566 29.2734 68.7344 29.293C68.5293 29.3125 68.3145 29.3467 68.0898 29.3955C67.875 29.4541 67.6895 29.4834 67.5332 29.4834C67.3574 29.4834 67.1865 29.4443 67.0205 29.3662C66.8643 29.2881 66.6982 29.2344 66.5225 29.2051C66.1904 29.1367 65.8877 29.0781 65.6143 29.0293C65.3408 28.9902 65.1064 28.917 64.9111 28.8096C64.7158 28.6924 64.5645 28.5215 64.457 28.2969C64.3496 28.0723 64.2959 27.7549 64.2959 27.3447V26.7734C64.2959 26.5391 64.2666 26.29 64.208 26.0264C64.1494 25.7529 64.0811 25.4941 64.0029 25.25C63.9346 25.0059 63.8711 24.7861 63.8125 24.5908C63.7539 24.3857 63.7246 24.2246 63.7246 24.1074C63.7246 24.0586 63.7393 23.9902 63.7686 23.9023C63.7979 23.8145 63.8271 23.7217 63.8564 23.624C63.8955 23.5264 63.9297 23.4238 63.959 23.3164C63.9883 23.209 64.0029 23.1113 64.0029 23.0234C64.0029 22.877 63.9785 22.7207 63.9297 22.5547C63.8809 22.3887 63.8271 22.2178 63.7686 22.042C63.7197 21.8662 63.6709 21.6855 63.6221 21.5C63.5732 21.3047 63.5488 21.1045 63.5488 20.8994C63.5488 20.792 63.5635 20.6797 63.5928 20.5625C63.6221 20.4355 63.6367 20.3184 63.6367 20.2109C63.627 20.0449 63.6025 19.874 63.5635 19.6982C63.5244 19.5127 63.4805 19.3271 63.4316 19.1416C63.3828 18.9463 63.3389 18.751 63.2998 18.5557C63.2607 18.3506 63.2412 18.1406 63.2412 17.9258C63.2412 17.7793 63.2461 17.6279 63.2559 17.4717C63.2656 17.3154 63.2705 17.1689 63.2705 17.0322C63.2705 16.8271 63.2412 16.6025 63.1826 16.3584C63.124 16.1045 63.0605 15.8408 62.9922 15.5674C62.9238 15.2842 62.8604 14.9961 62.8018 14.7031C62.7432 14.4004 62.7139 14.1074 62.7139 13.8242C62.7139 13.6582 62.7236 13.4775 62.7432 13.2822C62.7725 13.0869 62.8018 12.9014 62.8311 12.7256C62.8701 12.5498 62.9092 12.3936 62.9482 12.2568C62.9873 12.1104 63.0264 12.0127 63.0654 11.9639C63.1045 11.9346 63.1875 11.9053 63.3145 11.876C63.4512 11.8467 63.6025 11.8174 63.7686 11.7881C63.9443 11.7588 64.1201 11.7295 64.2959 11.7002C64.4814 11.6709 64.6328 11.6367 64.75 11.5977C65.0918 11.4902 65.4141 11.3877 65.7168 11.29C66.0195 11.1924 66.3271 11.1338 66.6396 11.1143C66.7861 11.1143 66.9375 11.1191 67.0938 11.1289C67.2598 11.1387 67.416 11.1436 67.5625 11.1436C67.8457 11.1436 68.1143 11.0996 68.3682 11.0117C68.6221 10.9238 68.8564 10.8799 69.0713 10.8799C69.2471 10.8799 69.3887 10.9434 69.4961 11.0703C69.6133 11.1875 69.7012 11.3486 69.7598 11.5537C69.8184 11.7588 69.8574 11.9932 69.877 12.2568C69.8965 12.5205 69.9062 12.7939 69.9062 13.0771C69.9062 13.4971 69.8965 13.917 69.877 14.3369C69.8574 14.7568 69.8477 15.123 69.8477 15.4355C69.8477 15.6602 69.877 15.8945 69.9355 16.1387C69.9941 16.373 70.0234 16.6025 70.0234 16.8271C70.0234 17.0518 69.999 17.2959 69.9502 17.5596C69.9014 17.8135 69.8672 18.0479 69.8477 18.2627C69.8184 18.5654 69.7939 18.8682 69.7744 19.1709C69.7549 19.4736 69.7207 19.7324 69.6719 19.9473C69.623 20.084 69.5498 20.2207 69.4521 20.3574C69.3545 20.4844 69.2959 20.626 69.2764 20.7822C69.2764 20.8994 69.3008 21.041 69.3496 21.207C69.3984 21.3633 69.4326 21.5293 69.4521 21.7051C69.501 22.0859 69.5205 22.4717 69.5107 22.8623C69.5107 23.2432 69.5352 23.5996 69.584 23.9316C69.7305 23.6582 69.8623 23.3555 69.9795 23.0234C70.1064 22.6914 70.2236 22.3496 70.3311 21.998C70.4482 21.6465 70.5605 21.29 70.668 20.9287C70.7852 20.5576 70.9121 20.1963 71.0488 19.8447C71.166 19.5322 71.3027 19.2051 71.459 18.8633C71.6152 18.5117 71.7715 18.1699 71.9277 17.8379C72.0938 17.4961 72.2451 17.1641 72.3818 16.8418C72.5283 16.5195 72.6455 16.2217 72.7334 15.9482C72.8018 15.7139 72.8506 15.4941 72.8799 15.2891C72.9092 15.084 72.958 14.9033 73.0264 14.7471C73.0947 14.5908 73.207 14.4688 73.3633 14.3809C73.5195 14.2832 73.7686 14.2344 74.1104 14.2344C74.5986 14.2344 74.9551 14.293 75.1797 14.4102C75.4043 14.5176 75.5605 14.6738 75.6484 14.8789C75.7461 15.0742 75.8096 15.3086 75.8389 15.582C75.8779 15.8457 75.9512 16.1289 76.0586 16.4316C76.1758 16.793 76.3564 17.1543 76.6006 17.5156C76.8447 17.877 77.0645 18.2529 77.2598 18.6436C77.4551 19.0439 77.6357 19.4492 77.8018 19.8594C77.9678 20.2598 78.124 20.6553 78.2705 21.0459C78.29 20.9092 78.3047 20.7822 78.3145 20.665C78.334 20.5381 78.3438 20.4062 78.3438 20.2695C78.3438 19.9766 78.3242 19.6885 78.2852 19.4053C78.2461 19.1123 78.2021 18.8242 78.1533 18.541C78.1143 18.2578 78.0752 17.9844 78.0361 17.7207C77.9971 17.4473 77.9775 17.1787 77.9775 16.915C77.9775 16.7783 77.9824 16.6367 77.9922 16.4902C78.002 16.3438 78.0068 16.2021 78.0068 16.0654C78.0068 15.7627 77.958 15.4893 77.8604 15.2451C77.7627 14.9912 77.6553 14.7568 77.5381 14.542C77.4307 14.3174 77.3281 14.1025 77.2305 13.8975C77.1328 13.6826 77.084 13.458 77.084 13.2236C77.084 13.0283 77.1035 12.7695 77.1426 12.4473C77.1816 12.125 77.2012 11.7832 77.2012 11.4219C77.2012 11.002 77.1572 10.6162 77.0693 10.2646C76.9912 9.91309 76.9521 9.61035 76.9521 9.35645C76.9521 9.30762 76.9521 9.26855 76.9521 9.23926C76.9521 9.2002 76.9619 9.15625 76.9814 9.10742C77.04 8.74609 77.123 8.4873 77.2305 8.33105C77.3477 8.1748 77.4795 8.07715 77.626 8.03809C77.7822 7.98926 77.958 7.96973 78.1533 7.97949C78.3584 7.97949 78.5781 7.95508 78.8125 7.90625C78.9199 7.89648 79.0518 7.87695 79.208 7.84766C79.3643 7.80859 79.5352 7.77441 79.7207 7.74512C79.916 7.70605 80.1162 7.67676 80.3213 7.65723C80.5264 7.62793 80.7266 7.61328 80.9219 7.61328C81.332 7.61328 81.6592 7.71094 81.9033 7.90625C82.1572 8.0918 82.3477 8.3457 82.4746 8.66797C82.6113 8.99023 82.6992 9.37109 82.7383 9.81055C82.7871 10.25 82.8115 10.7188 82.8115 11.2168V11.7734ZM91.3516 14.1465C91.332 14.332 91.2979 14.5029 91.249 14.6592C91.2002 14.8154 91.1758 15.0059 91.1758 15.2305C91.1758 15.5137 91.1855 15.8018 91.2051 16.0947C91.2246 16.3877 91.2344 16.6611 91.2344 16.915C91.2344 17.1787 91.2051 17.3936 91.1465 17.5596C91.0977 17.7256 91.0293 17.8721 90.9414 17.999C90.8633 18.1162 90.7754 18.2285 90.6777 18.3359C90.5801 18.4434 90.4873 18.5703 90.3994 18.7168C90.3213 18.8633 90.2529 19.0488 90.1943 19.2734C90.1455 19.498 90.1211 19.7812 90.1211 20.123C90.1211 20.8164 90.1406 21.5342 90.1797 22.2764C90.2188 23.0088 90.2383 23.79 90.2383 24.6201C90.2383 24.8936 90.2236 25.1523 90.1943 25.3965C90.1748 25.6406 90.1455 25.8848 90.1064 26.1289C90.0674 26.3633 90.0186 26.6025 89.96 26.8467C89.9111 27.0811 89.8574 27.3301 89.7988 27.5938C89.7305 27.8965 89.667 28.165 89.6084 28.3994C89.5498 28.624 89.4521 28.8145 89.3154 28.9707C89.1885 29.127 88.998 29.2441 88.7441 29.3223C88.5 29.4102 88.1582 29.4541 87.7188 29.4541C87.3965 29.4541 87.1621 29.3809 87.0156 29.2344C86.8691 29.0977 86.7568 28.917 86.6787 28.6924C86.6104 28.458 86.5518 28.1992 86.5029 27.916C86.4541 27.623 86.3711 27.3252 86.2539 27.0225C86.1758 26.8467 86.0928 26.71 86.0049 26.6123C85.917 26.5049 85.834 26.3975 85.7559 26.29C85.6875 26.1729 85.6289 26.0312 85.5801 25.8652C85.5312 25.6895 85.5068 25.4453 85.5068 25.1328C85.5068 24.8789 85.5166 24.6055 85.5361 24.3125C85.5654 24.0195 85.5947 23.7217 85.624 23.4189C85.6533 23.1064 85.6777 22.7939 85.6973 22.4814C85.7266 22.1592 85.7412 21.8418 85.7412 21.5293C85.7412 21.2559 85.7217 21.0166 85.6826 20.8115C85.6436 20.6064 85.5996 20.4111 85.5508 20.2256C85.5117 20.04 85.4727 19.8496 85.4336 19.6543C85.3945 19.4492 85.375 19.2051 85.375 18.9219C85.375 18.6484 85.3896 18.4287 85.4189 18.2627C85.458 18.0967 85.4971 17.9502 85.5361 17.8232C85.585 17.6963 85.624 17.5742 85.6533 17.457C85.6924 17.3398 85.7119 17.1982 85.7119 17.0322C85.7119 16.8564 85.6582 16.6904 85.5508 16.5342C85.4531 16.3682 85.3408 16.2119 85.2139 16.0654C85.0967 15.9189 84.9893 15.7773 84.8916 15.6406C84.7939 15.4941 84.7549 15.3574 84.7744 15.2305C84.7744 15.1523 84.7891 15.0596 84.8184 14.9521C84.8477 14.8447 84.877 14.7324 84.9062 14.6152C84.9453 14.4883 84.9795 14.3662 85.0088 14.249C85.0381 14.1221 85.0527 14 85.0527 13.8828C85.0527 13.4824 84.999 13.0967 84.8916 12.7256C84.7939 12.3545 84.7451 11.998 84.7451 11.6562C84.7451 11.6074 84.7451 11.5586 84.7451 11.5098C84.7451 11.4609 84.7549 11.4121 84.7744 11.3633C84.7939 11.2461 84.8574 11.0947 84.9648 10.9092C85.0723 10.7139 85.1943 10.5283 85.3311 10.3525C85.4678 10.167 85.6045 10.0107 85.7412 9.88379C85.8779 9.74707 85.9805 9.67871 86.0488 9.67871C86.1074 9.67871 86.1611 9.68359 86.21 9.69336C86.2686 9.70313 86.3223 9.70801 86.3711 9.70801C86.5664 9.70801 86.8154 9.68848 87.1182 9.64941C87.4307 9.61035 87.7529 9.59082 88.085 9.59082C88.3291 9.59082 88.5732 9.60059 88.8174 9.62012C89.0615 9.62988 89.2861 9.64941 89.4912 9.67871C89.7061 9.70801 89.8916 9.74707 90.0479 9.7959C90.2139 9.84473 90.3408 9.9082 90.4287 9.98633C90.458 10.0059 90.5117 10.0986 90.5898 10.2646C90.6777 10.4307 90.7705 10.6162 90.8682 10.8213C90.9658 11.0166 91.0488 11.207 91.1172 11.3926C91.1953 11.5684 91.2441 11.6855 91.2637 11.7441C91.293 11.9102 91.3174 12.1445 91.3369 12.4473C91.3662 12.75 91.3809 13.0674 91.3809 13.3994C91.3809 13.5166 91.376 13.6436 91.3662 13.7803C91.3564 13.9072 91.3516 14.0293 91.3516 14.1465ZM106.366 25.543C106.386 25.6211 106.4 25.7041 106.41 25.792C106.42 25.8701 106.425 25.9482 106.425 26.0264C106.425 26.6514 106.322 27.1836 106.117 27.623C105.912 28.0625 105.624 28.4336 105.253 28.7363C104.892 29.0293 104.462 29.2637 103.964 29.4395C103.476 29.625 102.943 29.7617 102.367 29.8496C101.791 29.9473 101.186 30.0107 100.551 30.04C99.9258 30.0693 99.2959 30.084 98.6611 30.084C98.29 30.084 97.9287 30.0742 97.5771 30.0547C97.2354 30.0449 96.9131 30.0254 96.6104 29.9961C96.2393 29.9473 95.9072 29.8545 95.6143 29.7178C95.3311 29.5811 95.0527 29.4834 94.7793 29.4248C94.5547 29.376 94.2959 29.3418 94.0029 29.3223C93.71 29.3125 93.4316 29.2832 93.168 29.2344C92.9043 29.1953 92.6797 29.1221 92.4941 29.0146C92.3184 28.9072 92.2305 28.7412 92.2305 28.5166C92.2305 28.4287 92.2451 28.3311 92.2744 28.2236C92.3135 28.1162 92.3721 27.9941 92.4502 27.8574V27.8867C92.46 27.8867 92.499 27.8574 92.5674 27.7988C92.6357 27.7305 92.7041 27.6572 92.7725 27.5791C92.8408 27.501 92.8994 27.4326 92.9482 27.374C92.9971 27.3057 93.0166 27.2764 93.0068 27.2861C93.1533 27.1885 93.29 27.1396 93.417 27.1396C93.5537 27.1299 93.666 27.1006 93.7539 27.0518C93.8516 27.0029 93.9248 26.9053 93.9736 26.7588C94.0322 26.6123 94.0615 26.3486 94.0615 25.9678C94.0615 25.6357 94.0518 25.2939 94.0322 24.9424C94.0225 24.5811 94.0078 24.249 93.9883 23.9463C93.9785 23.6338 93.9688 23.3701 93.959 23.1553C93.9492 22.9307 93.9443 22.7891 93.9443 22.7305C93.9443 22.2812 93.9492 21.8125 93.959 21.3242C93.9688 20.8262 93.9736 20.3135 93.9736 19.7861C93.9736 19.3076 93.9541 18.8291 93.915 18.3506C93.876 17.8623 93.832 17.3838 93.7832 16.915C93.7441 16.4463 93.7051 15.9873 93.666 15.5381C93.627 15.0791 93.6074 14.6445 93.6074 14.2344C93.6074 13.9707 93.627 13.7266 93.666 13.502C93.7148 13.2773 93.7637 13.0576 93.8125 12.8428C93.8711 12.6279 93.9199 12.418 93.959 12.2129C94.0078 11.998 94.0322 11.7637 94.0322 11.5098C94.0322 11.168 94.0078 10.8408 93.959 10.5283C93.9102 10.2061 93.8857 9.87402 93.8857 9.53223C93.8857 9.2002 93.8955 8.91211 93.915 8.66797C93.9443 8.42383 94.0029 8.22363 94.0908 8.06738C94.1787 7.90137 94.3008 7.7793 94.457 7.70117C94.6133 7.62305 94.8232 7.58398 95.0869 7.58398C95.4189 7.58398 95.707 7.62305 95.9512 7.70117C96.1953 7.76953 96.4199 7.85742 96.625 7.96484C96.8301 8.07227 97.0254 8.18457 97.2109 8.30176C97.3965 8.41895 97.6064 8.5166 97.8408 8.59473C98.1436 8.70215 98.3975 8.76563 98.6025 8.78516C98.8076 8.80469 98.9834 8.83887 99.1299 8.8877C99.2861 8.92676 99.418 9.00977 99.5254 9.13672C99.6328 9.26367 99.7402 9.4834 99.8477 9.7959C99.877 9.88379 99.9062 10.001 99.9355 10.1475C99.9746 10.2842 100.009 10.4453 100.038 10.6309C100.067 10.8066 100.087 10.9971 100.097 11.2021C100.116 11.3975 100.126 11.5977 100.126 11.8027C100.126 12.3008 100.102 12.8281 100.053 13.3848C100.004 13.9414 99.9795 14.4688 99.9795 14.9668C99.9795 15.2207 99.9941 15.4746 100.023 15.7285C100.053 15.9727 100.067 16.2168 100.067 16.4609C100.038 17.1641 99.9893 17.8721 99.9209 18.585C99.8623 19.2881 99.7988 20.001 99.7305 20.7236C99.6719 21.4463 99.6182 22.1836 99.5693 22.9355C99.5205 23.6777 99.4961 24.4395 99.4961 25.2207C99.4961 25.2988 99.4912 25.377 99.4814 25.4551C99.4717 25.5234 99.4717 25.5869 99.4814 25.6455C99.4912 25.7041 99.5205 25.7529 99.5693 25.792C99.6182 25.8311 99.7012 25.8506 99.8184 25.8506C100.268 25.8506 100.736 25.8115 101.225 25.7334C101.713 25.6455 102.177 25.5527 102.616 25.4551C103.065 25.3477 103.476 25.2549 103.847 25.1768C104.218 25.0889 104.506 25.0449 104.711 25.0449C104.877 25.0449 105.048 25.0547 105.224 25.0742C105.409 25.084 105.58 25.1084 105.736 25.1475C105.902 25.1768 106.039 25.2256 106.146 25.2939C106.264 25.3623 106.337 25.4453 106.366 25.543ZM113.676 14.1465C113.656 14.332 113.622 14.5029 113.573 14.6592C113.524 14.8154 113.5 15.0059 113.5 15.2305C113.5 15.5137 113.51 15.8018 113.529 16.0947C113.549 16.3877 113.559 16.6611 113.559 16.915C113.559 17.1787 113.529 17.3936 113.471 17.5596C113.422 17.7256 113.354 17.8721 113.266 17.999C113.188 18.1162 113.1 18.2285 113.002 18.3359C112.904 18.4434 112.812 18.5703 112.724 18.7168C112.646 18.8633 112.577 19.0488 112.519 19.2734C112.47 19.498 112.445 19.7812 112.445 20.123C112.445 20.8164 112.465 21.5342 112.504 22.2764C112.543 23.0088 112.562 23.79 112.562 24.6201C112.562 24.8936 112.548 25.1523 112.519 25.3965C112.499 25.6406 112.47 25.8848 112.431 26.1289C112.392 26.3633 112.343 26.6025 112.284 26.8467C112.235 27.0811 112.182 27.3301 112.123 27.5938C112.055 27.8965 111.991 28.165 111.933 28.3994C111.874 28.624 111.776 28.8145 111.64 28.9707C111.513 29.127 111.322 29.2441 111.068 29.3223C110.824 29.4102 110.482 29.4541 110.043 29.4541C109.721 29.4541 109.486 29.3809 109.34 29.2344C109.193 29.0977 109.081 28.917 109.003 28.6924C108.935 28.458 108.876 28.1992 108.827 27.916C108.778 27.623 108.695 27.3252 108.578 27.0225C108.5 26.8467 108.417 26.71 108.329 26.6123C108.241 26.5049 108.158 26.3975 108.08 26.29C108.012 26.1729 107.953 26.0312 107.904 25.8652C107.855 25.6895 107.831 25.4453 107.831 25.1328C107.831 24.8789 107.841 24.6055 107.86 24.3125C107.89 24.0195 107.919 23.7217 107.948 23.4189C107.978 23.1064 108.002 22.7939 108.021 22.4814C108.051 22.1592 108.065 21.8418 108.065 21.5293C108.065 21.2559 108.046 21.0166 108.007 20.8115C107.968 20.6064 107.924 20.4111 107.875 20.2256C107.836 20.04 107.797 19.8496 107.758 19.6543C107.719 19.4492 107.699 19.2051 107.699 18.9219C107.699 18.6484 107.714 18.4287 107.743 18.2627C107.782 18.0967 107.821 17.9502 107.86 17.8232C107.909 17.6963 107.948 17.5742 107.978 17.457C108.017 17.3398 108.036 17.1982 108.036 17.0322C108.036 16.8564 107.982 16.6904 107.875 16.5342C107.777 16.3682 107.665 16.2119 107.538 16.0654C107.421 15.9189 107.313 15.7773 107.216 15.6406C107.118 15.4941 107.079 15.3574 107.099 15.2305C107.099 15.1523 107.113 15.0596 107.143 14.9521C107.172 14.8447 107.201 14.7324 107.23 14.6152C107.27 14.4883 107.304 14.3662 107.333 14.249C107.362 14.1221 107.377 14 107.377 13.8828C107.377 13.4824 107.323 13.0967 107.216 12.7256C107.118 12.3545 107.069 11.998 107.069 11.6562C107.069 11.6074 107.069 11.5586 107.069 11.5098C107.069 11.4609 107.079 11.4121 107.099 11.3633C107.118 11.2461 107.182 11.0947 107.289 10.9092C107.396 10.7139 107.519 10.5283 107.655 10.3525C107.792 10.167 107.929 10.0107 108.065 9.88379C108.202 9.74707 108.305 9.67871 108.373 9.67871C108.432 9.67871 108.485 9.68359 108.534 9.69336C108.593 9.70313 108.646 9.70801 108.695 9.70801C108.891 9.70801 109.14 9.68848 109.442 9.64941C109.755 9.61035 110.077 9.59082 110.409 9.59082C110.653 9.59082 110.897 9.60059 111.142 9.62012C111.386 9.62988 111.61 9.64941 111.815 9.67871C112.03 9.70801 112.216 9.74707 112.372 9.7959C112.538 9.84473 112.665 9.9082 112.753 9.98633C112.782 10.0059 112.836 10.0986 112.914 10.2646C113.002 10.4307 113.095 10.6162 113.192 10.8213C113.29 11.0166 113.373 11.207 113.441 11.3926C113.52 11.5684 113.568 11.6855 113.588 11.7441C113.617 11.9102 113.642 12.1445 113.661 12.4473C113.69 12.75 113.705 13.0674 113.705 13.3994C113.705 13.5166 113.7 13.6436 113.69 13.7803C113.681 13.9072 113.676 14.0293 113.676 14.1465ZM132.733 22.0127C132.685 22.0713 132.597 22.125 132.47 22.1738C132.353 22.2129 132.221 22.252 132.074 22.291C131.938 22.3301 131.801 22.3691 131.664 22.4082C131.537 22.4375 131.435 22.4668 131.356 22.4961C131.142 22.5645 130.946 22.623 130.771 22.6719C130.604 22.7207 130.463 22.7793 130.346 22.8477C130.229 22.9062 130.136 22.9795 130.067 23.0674C130.009 23.1455 129.979 23.2529 129.979 23.3896C129.979 23.5166 129.994 23.6582 130.023 23.8145C130.053 23.9609 130.082 24.1074 130.111 24.2539C130.141 24.4004 130.17 24.542 130.199 24.6787C130.229 24.8154 130.243 24.9375 130.243 25.0449C130.243 25.1523 130.238 25.25 130.229 25.3379C130.219 25.4258 130.214 25.5088 130.214 25.5869C130.214 25.7236 130.238 25.8408 130.287 25.9385C130.336 26.0264 130.395 26.1191 130.463 26.2168C130.531 26.3047 130.604 26.3975 130.683 26.4951C130.761 26.5928 130.824 26.71 130.873 26.8467C130.922 26.9541 130.976 27.1201 131.034 27.3447C131.093 27.5596 131.146 27.7988 131.195 28.0625C131.254 28.3262 131.298 28.5947 131.327 28.8682C131.366 29.1416 131.386 29.3955 131.386 29.6299C131.386 29.9717 131.317 30.2354 131.181 30.4209C131.054 30.6162 130.888 30.7578 130.683 30.8457C130.487 30.9434 130.272 31.002 130.038 31.0215C129.813 31.0508 129.604 31.0654 129.408 31.0654C129.096 31.0654 128.798 30.9775 128.515 30.8018C128.231 30.6357 127.982 30.4062 127.768 30.1133C127.553 29.8203 127.382 29.4785 127.255 29.0879C127.128 28.707 127.064 28.2969 127.064 27.8574C127.064 27.7793 127.064 27.6914 127.064 27.5938C127.064 27.4961 127.074 27.3936 127.094 27.2861C126.889 27.3057 126.742 27.3691 126.654 27.4766C126.576 27.584 126.518 27.7158 126.479 27.8721C126.439 28.0186 126.4 28.1748 126.361 28.3408C126.332 28.5068 126.269 28.6582 126.171 28.7949C126.044 28.9707 125.824 29.1514 125.512 29.3369C125.209 29.5322 124.872 29.7031 124.501 29.8496C124.13 30.0059 123.754 30.1328 123.373 30.2305C122.992 30.3281 122.665 30.377 122.392 30.377C122.099 30.377 121.869 30.3232 121.703 30.2158C121.547 30.1084 121.4 29.9912 121.264 29.8643C121.137 29.7471 120.99 29.6348 120.824 29.5273C120.668 29.4199 120.448 29.3662 120.165 29.3662H119.784C119.374 29.3662 119.008 29.3125 118.686 29.2051C118.373 29.0977 118.075 28.9658 117.792 28.8096C117.519 28.6436 117.25 28.4678 116.986 28.2822C116.732 28.0967 116.454 27.9258 116.151 27.7695C115.985 27.6816 115.824 27.5791 115.668 27.4619C115.512 27.3447 115.37 27.1982 115.243 27.0225C115.116 26.8369 115.014 26.6123 114.936 26.3486C114.867 26.085 114.833 25.7578 114.833 25.3672C114.833 25.1914 114.848 25.0352 114.877 24.8984C114.906 24.752 114.94 24.6104 114.979 24.4736C115.019 24.3369 115.053 24.2002 115.082 24.0635C115.111 23.9268 115.126 23.7803 115.126 23.624C115.126 23.5166 115.121 23.4189 115.111 23.3311C115.102 23.2432 115.097 23.1504 115.097 23.0527C115.097 22.877 115.126 22.7158 115.185 22.5693C115.253 22.4131 115.321 22.2617 115.39 22.1152C115.468 21.959 115.536 21.8027 115.595 21.6465C115.663 21.4902 115.697 21.3193 115.697 21.1338C115.697 20.9287 115.678 20.7334 115.639 20.5479C115.6 20.3525 115.556 20.1572 115.507 19.9619C115.458 19.7568 115.414 19.5518 115.375 19.3467C115.336 19.1318 115.316 18.9072 115.316 18.6729C115.316 18.4971 115.331 18.2627 115.36 17.9697C115.39 17.6768 115.443 17.3936 115.521 17.1201C115.541 17.0322 115.585 16.9492 115.653 16.8711C115.722 16.793 115.766 16.7148 115.785 16.6367C115.814 16.4902 115.834 16.3535 115.844 16.2266C115.863 16.0898 115.878 15.958 115.888 15.8311C115.907 15.7041 115.927 15.582 115.946 15.4648C115.966 15.3379 116.005 15.2109 116.063 15.084C116.181 14.7812 116.327 14.498 116.503 14.2344C116.688 13.9609 116.82 13.6826 116.898 13.3994C116.977 13.1455 117.025 12.8818 117.045 12.6084C117.064 12.335 117.108 12.0811 117.177 11.8467C117.216 11.7002 117.27 11.5195 117.338 11.3047C117.406 11.0801 117.484 10.8506 117.572 10.6162C117.67 10.3818 117.777 10.1572 117.895 9.94238C118.012 9.72754 118.139 9.55176 118.275 9.41504C118.412 9.27832 118.549 9.17578 118.686 9.10742C118.822 9.03906 118.974 8.98535 119.14 8.94629C119.306 8.90723 119.491 8.87305 119.696 8.84375C119.901 8.81445 120.141 8.76563 120.414 8.69727C120.668 8.63867 120.961 8.55566 121.293 8.44824C121.625 8.34082 121.962 8.23828 122.304 8.14062C122.646 8.0332 122.978 7.94531 123.3 7.87695C123.622 7.79883 123.9 7.75977 124.135 7.75977C124.477 7.75977 124.809 7.83789 125.131 7.99414C125.453 8.14062 125.761 8.31152 126.054 8.50684C126.356 8.69238 126.645 8.87793 126.918 9.06348C127.191 9.23926 127.46 9.35645 127.724 9.41504C127.968 9.47363 128.202 9.5127 128.427 9.53223C128.661 9.54199 128.881 9.55664 129.086 9.57617C129.301 9.5957 129.496 9.63477 129.672 9.69336C129.857 9.74219 130.019 9.83984 130.155 9.98633C130.272 10.1035 130.365 10.2646 130.434 10.4697C130.502 10.6748 130.561 10.9043 130.609 11.1582C130.658 11.4023 130.702 11.666 130.741 11.9492C130.78 12.2227 130.824 12.4863 130.873 12.7402C130.971 13.1602 131.068 13.5459 131.166 13.8975C131.273 14.2393 131.337 14.5322 131.356 14.7764C131.356 14.8447 131.356 14.9766 131.356 15.1719C131.356 15.3574 131.347 15.5625 131.327 15.7871C131.317 16.002 131.298 16.207 131.269 16.4023C131.249 16.5977 131.22 16.7393 131.181 16.8271C131.103 16.9541 131.01 17.042 130.902 17.0908C130.805 17.1299 130.683 17.1592 130.536 17.1787C130.399 17.1885 130.243 17.1982 130.067 17.208C129.901 17.2178 129.711 17.2471 129.496 17.2959C129.32 17.3545 129.164 17.4229 129.027 17.501C128.891 17.5791 128.759 17.6572 128.632 17.7354C128.515 17.8037 128.397 17.8721 128.28 17.9404C128.173 17.999 128.051 18.0332 127.914 18.043C127.855 18.043 127.733 18.0186 127.548 17.9697C127.372 17.9111 127.191 17.8672 127.006 17.8379C126.771 17.8281 126.542 17.8184 126.317 17.8086C126.093 17.7891 125.888 17.7598 125.702 17.7207C125.517 17.6719 125.365 17.5986 125.248 17.501C125.141 17.4033 125.087 17.2666 125.087 17.0908C125.087 16.9541 125.102 16.7881 125.131 16.5928C125.16 16.3975 125.175 16.1729 125.175 15.9189C125.175 15.6357 125.126 15.3818 125.028 15.1572C124.931 14.9229 124.882 14.708 124.882 14.5127C124.882 14.2979 124.882 14.083 124.882 13.8682C124.882 13.6533 124.848 13.4629 124.779 13.2969C124.711 13.1211 124.589 12.9795 124.413 12.8721C124.247 12.7646 123.993 12.7109 123.651 12.7109C123.466 12.7109 123.261 12.7207 123.036 12.7402C122.812 12.7598 122.597 12.7842 122.392 12.8135C122.187 12.8428 122.001 12.877 121.835 12.916C121.679 12.9551 121.576 12.9941 121.527 13.0332C121.42 13.1309 121.352 13.3506 121.322 13.6924C121.293 14.0244 121.239 14.4248 121.161 14.8936C121.112 15.1768 121.034 15.46 120.927 15.7432C120.829 16.0264 120.756 16.2949 120.707 16.5488C120.658 16.7441 120.639 16.9346 120.648 17.1201C120.658 17.2959 120.639 17.4766 120.59 17.6621C120.57 17.7793 120.541 17.9209 120.502 18.0869C120.463 18.2432 120.424 18.4141 120.385 18.5996C120.346 18.7852 120.307 18.9756 120.268 19.1709C120.238 19.3564 120.224 19.5322 120.224 19.6982C120.224 19.8643 120.253 20.0156 120.312 20.1523C120.38 20.2793 120.414 20.4404 120.414 20.6357C120.414 20.9189 120.365 21.2217 120.268 21.5439C120.18 21.8662 120.136 22.1836 120.136 22.4961C120.136 22.6328 120.165 22.7451 120.224 22.833C120.292 22.9111 120.326 23.0283 120.326 23.1846C120.326 23.2725 120.316 23.3604 120.297 23.4482C120.277 23.5361 120.268 23.6289 120.268 23.7266C120.268 23.8926 120.331 24.083 120.458 24.2979C120.595 24.5127 120.746 24.7227 120.912 24.9277C121.088 25.123 121.259 25.2988 121.425 25.4551C121.601 25.6016 121.732 25.6943 121.82 25.7334C121.957 25.8115 122.128 25.8896 122.333 25.9678C122.548 26.0361 122.758 26.0947 122.963 26.1436C123.168 26.1924 123.349 26.2314 123.505 26.2607C123.671 26.29 123.769 26.3047 123.798 26.3047C124.208 26.3047 124.56 26.2217 124.853 26.0557C125.146 25.8799 125.395 25.6602 125.6 25.3965C125.814 25.123 125.995 24.8154 126.142 24.4736C126.288 24.1221 126.42 23.7705 126.537 23.4189C126.02 23.5264 125.57 23.6484 125.189 23.7852C124.809 23.9219 124.447 23.9902 124.105 23.9902C123.871 23.9902 123.661 23.9512 123.476 23.873C123.349 23.834 123.212 23.7217 123.065 23.5361C122.929 23.3408 122.802 23.1211 122.685 22.877C122.567 22.623 122.47 22.3643 122.392 22.1006C122.313 21.8271 122.274 21.5879 122.274 21.3828C122.274 21.168 122.323 20.9482 122.421 20.7236C122.528 20.499 122.655 20.2939 122.802 20.1084C122.958 19.9229 123.119 19.7764 123.285 19.6689C123.461 19.5518 123.612 19.4932 123.739 19.4932C124.042 19.4932 124.374 19.5371 124.735 19.625C125.097 19.7129 125.507 19.7568 125.966 19.7568C126.503 19.7568 127.05 19.7324 127.606 19.6836C128.173 19.6348 128.715 19.6104 129.232 19.6104C129.369 19.6104 129.501 19.625 129.628 19.6543C129.755 19.6836 129.892 19.6982 130.038 19.6982C130.321 19.6787 130.604 19.6299 130.888 19.5518C131.171 19.4736 131.449 19.4346 131.723 19.4346C132.094 19.4346 132.387 19.6006 132.602 19.9326C132.816 20.2549 132.924 20.709 132.924 21.2949C132.924 21.4414 132.909 21.5781 132.88 21.7051C132.851 21.832 132.802 21.9346 132.733 22.0127ZM150.092 23.7852V23.9316C150.092 24.0684 150.077 24.2148 150.048 24.3711C150.019 24.5176 150.004 24.6592 150.004 24.7959C150.023 25.167 150.072 25.5527 150.15 25.9531C150.229 26.3438 150.268 26.7197 150.268 27.0811C150.268 27.3252 150.233 27.5498 150.165 27.7549C150.097 27.96 149.979 28.1455 149.813 28.3115C149.696 28.4287 149.521 28.5068 149.286 28.5459C149.052 28.585 148.798 28.668 148.524 28.7949C148.329 28.8828 148.158 28.9756 148.012 29.0732C147.865 29.1807 147.719 29.2344 147.572 29.2344C147.387 29.2344 147.157 29.1904 146.884 29.1025C146.62 29.0244 146.342 28.9268 146.049 28.8096C145.756 28.6826 145.468 28.5508 145.185 28.4141C144.901 28.2773 144.657 28.1504 144.452 28.0332C144.188 27.8965 143.983 27.7402 143.837 27.5645C143.7 27.3887 143.603 27.1787 143.544 26.9346C143.485 26.6807 143.451 26.3828 143.441 26.041C143.432 25.6895 143.427 25.2646 143.427 24.7666C143.427 24.376 143.432 23.9316 143.441 23.4336C143.451 22.9355 143.456 22.4619 143.456 22.0127C143.456 21.6709 143.456 21.3096 143.456 20.9287C143.466 20.5381 143.397 20.1865 143.251 19.874C143.173 19.7959 143.021 19.7471 142.797 19.7275C142.572 19.708 142.323 19.6982 142.05 19.6982C141.825 19.6982 141.596 19.7031 141.361 19.7129C141.137 19.7227 140.927 19.7275 140.731 19.7275C140.458 19.7275 140.219 19.6787 140.014 19.5811C139.818 19.4834 139.618 19.4346 139.413 19.4346C139.315 19.4346 139.203 19.4688 139.076 19.5371C138.959 19.6055 138.9 19.752 138.9 19.9766C138.9 20.084 138.91 20.2061 138.93 20.3428C138.949 20.4697 138.969 20.5918 138.988 20.709C139.008 20.8262 139.027 20.9336 139.047 21.0312C139.066 21.1191 139.076 21.1777 139.076 21.207C139.076 21.5684 139.062 21.9199 139.032 22.2617C139.003 22.6035 138.988 22.9014 138.988 23.1553C138.988 23.3701 139.008 23.6191 139.047 23.9023C139.086 24.1855 139.125 24.4834 139.164 24.7959C139.213 25.1084 139.257 25.4307 139.296 25.7627C139.335 26.0947 139.354 26.4121 139.354 26.7148C139.354 27.2227 139.291 27.6377 139.164 27.96C139.047 28.2725 138.852 28.5215 138.578 28.707C138.314 28.8828 137.968 29.0049 137.538 29.0732C137.108 29.1416 136.591 29.1758 135.985 29.1758C135.702 29.1758 135.438 29.0977 135.194 28.9414C134.95 28.7852 134.735 28.6094 134.55 28.4141C134.364 28.209 134.218 28.0137 134.11 27.8281C134.003 27.6426 133.949 27.5156 133.949 27.4473C133.949 27.3301 133.964 27.2129 133.993 27.0957C134.022 26.9688 134.057 26.8418 134.096 26.7148C134.135 26.5781 134.169 26.4463 134.198 26.3193C134.228 26.1826 134.242 26.0557 134.242 25.9385C134.242 25.7725 134.223 25.6064 134.184 25.4404C134.145 25.2646 134.101 25.0938 134.052 24.9277C134.013 24.7617 133.974 24.5957 133.935 24.4297C133.905 24.2637 133.891 24.1074 133.891 23.9609C133.891 23.707 133.92 23.4385 133.979 23.1553C134.037 22.8623 134.066 22.5889 134.066 22.335C134.066 21.9639 134.057 21.5781 134.037 21.1777C134.018 20.7773 134.008 20.3672 134.008 19.9473C134.008 19.7324 134.008 19.5225 134.008 19.3174C134.018 19.1123 134.037 18.8975 134.066 18.6729C134.086 18.5654 134.12 18.4824 134.169 18.4238C134.218 18.3652 134.242 18.2822 134.242 18.1748C134.242 17.9893 134.213 17.8135 134.154 17.6475C134.096 17.4814 134.066 17.3057 134.066 17.1201C134.066 16.7881 134.086 16.4121 134.125 15.9922C134.164 15.5723 134.208 15.1426 134.257 14.7031C134.315 14.2539 134.364 13.8096 134.403 13.3701C134.442 12.9209 134.462 12.501 134.462 12.1104C134.462 11.8662 134.428 11.6172 134.359 11.3633C134.301 11.1094 134.271 10.8701 134.271 10.6455C134.271 10.5381 134.311 10.3965 134.389 10.2207C134.467 10.0352 134.579 9.85449 134.726 9.67871C134.882 9.50293 135.067 9.35156 135.282 9.22461C135.507 9.08789 135.761 9.01953 136.044 9.01953C136.356 9.01953 136.62 9.05859 136.835 9.13672C137.06 9.20508 137.24 9.29785 137.377 9.41504C137.523 9.53223 137.626 9.65918 137.685 9.7959C137.753 9.93262 137.787 10.0645 137.787 10.1914C137.787 10.416 137.772 10.6406 137.743 10.8652C137.714 11.0898 137.699 11.2559 137.699 11.3633C137.719 11.5 137.758 11.6416 137.816 11.7881C137.885 11.9248 137.934 12.0908 137.963 12.2861C138.021 12.6377 138.061 13.0283 138.08 13.458C138.109 13.8779 138.129 14.2734 138.139 14.6445C138.158 15.0059 138.173 15.3184 138.183 15.582C138.192 15.8359 138.212 15.9775 138.241 16.0068C138.31 16.0752 138.461 16.1289 138.695 16.168C138.93 16.1973 139.193 16.2217 139.486 16.2412C139.779 16.251 140.082 16.2607 140.395 16.2705C140.707 16.2705 140.98 16.2754 141.215 16.2852C141.381 16.3047 141.566 16.3291 141.771 16.3584C141.977 16.3877 142.177 16.4023 142.372 16.4023C142.675 16.4023 142.87 16.3242 142.958 16.168C143.056 16.0117 143.104 15.8066 143.104 15.5527C143.104 15.2988 143.08 15.04 143.031 14.7764C142.992 14.5127 142.973 14.3027 142.973 14.1465C142.973 14 143.002 13.8682 143.061 13.751C143.129 13.6338 143.163 13.5166 143.163 13.3994C143.163 12.9014 143.129 12.3984 143.061 11.8906C143.002 11.373 142.973 10.8945 142.973 10.4551C142.973 10.2793 142.997 10.0645 143.046 9.81055C143.104 9.54688 143.202 9.29297 143.339 9.04883C143.476 8.80469 143.661 8.59473 143.896 8.41895C144.13 8.24316 144.433 8.15527 144.804 8.15527C145.058 8.15527 145.351 8.19922 145.683 8.28711C146.024 8.36523 146.352 8.46777 146.664 8.59473C146.977 8.72168 147.26 8.86816 147.514 9.03418C147.768 9.19043 147.943 9.34668 148.041 9.50293C148.129 9.63965 148.188 9.80566 148.217 10.001C148.256 10.1865 148.28 10.3916 148.29 10.6162C148.31 10.8311 148.319 11.0557 148.319 11.29C148.319 11.5146 148.329 11.7295 148.349 11.9346C148.368 12.2275 148.393 12.5547 148.422 12.916C148.451 13.2773 148.485 13.6533 148.524 14.0439C148.573 14.4346 148.632 14.8301 148.7 15.2305C148.769 15.6309 148.861 16.0117 148.979 16.373C149.018 16.5195 149.071 16.6562 149.14 16.7832C149.208 16.9004 149.271 17.0176 149.33 17.1348C149.398 17.2422 149.452 17.3496 149.491 17.457C149.54 17.5547 149.56 17.6523 149.55 17.75C149.55 17.8867 149.535 18.0186 149.506 18.1455C149.477 18.2725 149.462 18.4189 149.462 18.585C149.462 18.9658 149.506 19.376 149.594 19.8154C149.682 20.2549 149.726 20.6943 149.726 21.1338C149.726 21.29 149.721 21.4414 149.711 21.5879C149.701 21.7344 149.696 21.876 149.696 22.0127C149.696 22.1592 149.716 22.3105 149.755 22.4668C149.794 22.6133 149.838 22.7598 149.887 22.9062C149.936 23.0527 149.979 23.1992 150.019 23.3457C150.058 23.4922 150.082 23.6387 150.092 23.7852ZM167.289 12.2568C167.309 12.4131 167.323 12.5791 167.333 12.7549C167.343 12.9209 167.348 13.0869 167.348 13.2529C167.348 13.7803 167.299 14.2148 167.201 14.5566C167.104 14.8887 166.952 15.1523 166.747 15.3477C166.552 15.543 166.298 15.6797 165.985 15.7578C165.673 15.8262 165.302 15.8604 164.872 15.8604C164.677 15.8604 164.501 15.8457 164.345 15.8164C164.188 15.7773 164.022 15.7432 163.847 15.7139C163.681 15.6748 163.49 15.6406 163.275 15.6113C163.061 15.5723 162.802 15.5527 162.499 15.5527C162.187 15.5527 161.869 15.5625 161.547 15.582C161.225 15.5918 160.941 15.5967 160.697 15.5967C160.492 15.5967 160.292 15.6016 160.097 15.6113C159.901 15.6113 159.726 15.6309 159.569 15.6699C159.413 15.709 159.286 15.7725 159.188 15.8604C159.091 15.9385 159.042 16.0508 159.042 16.1973C159.042 16.7637 159.076 17.291 159.145 17.7793C159.223 18.2676 159.262 18.7168 159.262 19.127C159.262 19.5957 159.247 20.0547 159.218 20.5039C159.198 20.9531 159.188 21.4268 159.188 21.9248C159.188 22.4229 159.223 22.9355 159.291 23.4629C159.369 23.9805 159.408 24.4443 159.408 24.8545C159.408 25.0498 159.398 25.2207 159.379 25.3672C159.359 25.5137 159.335 25.6406 159.306 25.748C159.286 25.8555 159.267 25.9482 159.247 26.0264C159.228 26.1045 159.218 26.1777 159.218 26.2461C159.218 26.3926 159.247 26.5537 159.306 26.7295C159.374 26.9053 159.408 27.0225 159.408 27.0811C159.389 27.5107 159.34 27.8818 159.262 28.1943C159.184 28.4971 159.047 28.7461 158.852 28.9414C158.666 29.1367 158.402 29.2783 158.061 29.3662C157.729 29.4639 157.289 29.5127 156.742 29.5127C156.596 29.5127 156.43 29.498 156.244 29.4688C156.059 29.4395 155.873 29.3955 155.688 29.3369C155.502 29.2881 155.336 29.2197 155.189 29.1318C155.043 29.0537 154.94 28.9609 154.882 28.8535C154.823 28.7559 154.789 28.6289 154.779 28.4727C154.77 28.3164 154.76 28.1455 154.75 27.96C154.74 27.7744 154.726 27.584 154.706 27.3887C154.696 27.1836 154.662 26.9883 154.604 26.8027C154.525 26.5684 154.418 26.3828 154.281 26.2461C154.154 26.0996 154.027 25.9678 153.9 25.8506C153.773 25.7236 153.661 25.5967 153.563 25.4697C153.476 25.3428 153.432 25.1816 153.432 24.9863C153.432 24.6348 153.476 24.2148 153.563 23.7266C153.661 23.2383 153.764 22.7354 153.871 22.2178C153.979 21.6904 154.076 21.1875 154.164 20.709C154.262 20.2207 154.311 19.8057 154.311 19.4639V18.7461C154.311 18.5605 154.325 18.3701 154.354 18.1748C154.384 17.9697 154.418 17.7695 154.457 17.5742C154.496 17.3789 154.53 17.1885 154.56 17.0029C154.589 16.8174 154.604 16.6465 154.604 16.4902C154.604 16.1484 154.506 15.9238 154.311 15.8164C154.115 15.709 153.852 15.6553 153.52 15.6553H152.89C152.694 15.6553 152.504 15.6406 152.318 15.6113C152.133 15.582 151.967 15.5137 151.82 15.4062C151.781 15.3672 151.708 15.25 151.601 15.0547C151.503 14.8496 151.4 14.6348 151.293 14.4102C151.186 14.1758 151.088 13.9609 151 13.7656C150.922 13.5605 150.883 13.4385 150.883 13.3994C150.883 13.2334 150.927 13.082 151.015 12.9453C151.112 12.8086 151.19 12.6426 151.249 12.4473C151.317 12.1934 151.371 11.9639 151.41 11.7588C151.449 11.5537 151.488 11.3682 151.527 11.2021C151.566 11.0361 151.62 10.8945 151.688 10.7773C151.767 10.6504 151.879 10.5479 152.025 10.4697C152.172 10.3818 152.367 10.3184 152.611 10.2793C152.865 10.2402 153.188 10.2207 153.578 10.2207C153.695 10.2207 153.808 10.2402 153.915 10.2793C154.032 10.3184 154.145 10.3623 154.252 10.4111C154.359 10.4502 154.467 10.4893 154.574 10.5283C154.682 10.5674 154.794 10.5869 154.911 10.5869C155.126 10.5869 155.282 10.543 155.38 10.4551C155.478 10.3672 155.551 10.2598 155.6 10.1328C155.658 9.99609 155.712 9.85449 155.761 9.70801C155.819 9.55176 155.907 9.41016 156.024 9.2832C156.151 9.14648 156.332 9.03418 156.566 8.94629C156.801 8.8584 157.128 8.81445 157.548 8.81445C157.851 8.84375 158.065 8.93164 158.192 9.07812C158.319 9.21484 158.417 9.37109 158.485 9.54688C158.554 9.72266 158.627 9.89844 158.705 10.0742C158.783 10.25 158.925 10.3867 159.13 10.4844C159.159 10.5039 159.252 10.5234 159.408 10.543C159.574 10.5625 159.755 10.582 159.95 10.6016C160.146 10.6211 160.331 10.6406 160.507 10.6602C160.692 10.6699 160.824 10.6748 160.902 10.6748C161.098 10.6748 161.293 10.6602 161.488 10.6309C161.684 10.6016 161.879 10.5869 162.074 10.5869C162.26 10.5869 162.431 10.6162 162.587 10.6748C162.753 10.7236 162.919 10.7822 163.085 10.8506C163.261 10.9189 163.451 10.9824 163.656 11.041C163.861 11.0898 164.105 11.1143 164.389 11.1143C164.701 11.1143 164.989 11.0996 165.253 11.0703C165.526 11.041 165.775 11.0264 166 11.0264C166.176 11.0264 166.332 11.0459 166.469 11.085C166.615 11.1143 166.742 11.1729 166.85 11.2607C166.957 11.3486 167.045 11.4756 167.113 11.6416C167.191 11.7979 167.25 12.0029 167.289 12.2568Z" fill="white"/>
</svg>
